<svg xmlns="http://www.w3.org/2000/svg" viewBox="0 768 512 512" width="512" height="512"><path fill="#AB1D15" d="M170.6 1098c-1.5-12.3-8.2-19.5-11.8-28.2-1-2.6-2-6.1-2-10.8 0-6.1 3.1-14.8 10.2-15.4 6.7-.5 6.1 8.2 4.1 13.3-1 2.6-3.1 4.6-3.1 6.1 14.3 3.1 24.6-15.4 15.9-24.1-4.1-4.6-13.8-4.6-20.5-3.1-15.9 3.6-27.6 15.9-28.2 31.2-.5 15.9 11.3 27.6 12.8 42 1.5 9.7-.5 18.9-5.6 25.6-6.7 8.7-21.5 8.7-25.6.5-7.7-14.8 6.1-28.2 20-29.7-3.1-4.6-11.3-4.6-17.9-3.6-11.8 2-24.1 11.8-22.5 27.6 1.5 13.8 15.4 20.5 28.7 20.5 29.1-.2 48.6-22.7 45.5-51.9zm241.1-152.6c6.7-7.2 15.4-17.9 16.4-27.6 2-22.5-27.1-11.8-22.5 4.1 6.1-7.7 14.8 2 6.1 23.5zm34.3-12.3c-8.2-2.6-14.3 1.5-16.9 4.6-10.2 13.3 9.2 29.7 3.6 43-2 4.6-13.3 11.3-16.4 3.1 2.6-1 6.7-3.1 8.7-6.7 2.6-4.1 4.6-12.3 0-15.4-14.3-6.1-23.6 23.6-12.8 33.3 3.6 3.6 8.2 4.6 14.3 4.1 13.3-.5 27.1-11.3 27.6-27.6s-12.2-23.5-8.1-38.4zm-43.5 50.2c-5.1 10.2-12.8 12.8-12.8 6.7 1-8.2 11.3-42 13.8-50.7l-17.4 2c-1.5 1-1 3.6-2 4.6-2-6.7-10.2-6.1-16.9-2.6-9.7 5.1-20 18.9-24.1 28.7-4.1 10.2-10.8 27.6-16.4 27.6-5.6 0-.5-11.3 2-17.4 3.6-8.7 13.8-30.7 1-33.8-10.8-2.6-19.5 8.2-24.6 14.3-1-3.6-1.5-6.7-4.1-7.7-8.7-5.1-22 8.2-25.6 12.3 1-2.6 1.5-5.1 2-7.7-6.1 1-12.3 2.6-18.9 3.6-2.6 10.2-5.6 20.5-8.7 30.7-1.5 4.6-6.7 21.5-13.3 21.5-5.1 0 8.2-38.9 11.8-51.2l-17.9 3.6-2.6 5.1c-.5-5.1-5.1-6.1-10.8-4.6-9.2 2.6-16.9 10.8-23 19.5-6.1 9.2-10.8 20-10.8 29.7-.5 9.7 2.6 17.4 8.7 18.9 11.3 3.1 21-10.2 24.1-16.9.5 5.6 2.6 9.2 5.1 10.2 9.2 4.6 19.5-6.1 21.5-9.2l-2 7.2 20.5-4.1c2-8.7 4.6-18.9 7.7-28.2 2.6-8.7 7.2-23 13.8-24.1 2-.5 0 8.7-1 12.3-3.6 12.8-7.2 25.1-11.3 38.4l20-4.1c2.6-6.7 4.1-14.3 6.1-22 2-7.7 4.1-16.4 6.7-22 1.5-3.1 4.6-7.7 8.7-7.7 4.6 0-10.2 26.1-8.7 39.9 1 6.7 7.2 10.2 13.8 9.2 12.3-2 19.5-13.3 22-17.4 2 20 27.1 8.7 32.3-4.6 1 7.7 5.1 11.8 12.3 11.3 17-1.8 21.1-20.8 19-21.3zm-185.3 18.9c-2.6 7.2-9.2 20-12.3 19.5-3.1-.5-2-6.7-1-11.3 2-9.7 7.7-28.2 15.4-31.7 6.1-3.1.4 15.9-2.1 23.5zm143.3-8.2c-7.2 1.5 2.6-26.1 8.2-34.3 3.6-5.1 6.7-8.7 9.2-8.7 4.1 2.2-9.7 41-17.4 43zm51.2 26.2c-3.1 1.5-6.1 7.7-8.7 14.3l-.5 1.5-.5 1.5c-2.6 6.7-6.7 14.8-12.3 20-7.2 6.7-20 9.2-18.9-5.6 10.8-5.1 25.1-15.4 26.6-28.2 1-9.7-4.6-14.3-13.3-13.3-9.7 1-17.4 8.7-23 15.9-6.1 8.2-9.2 17.4-9.7 27.6-1.5 2-3.6 5.6-6.1 8.2-4.1 4.6-8.7 8.7-15.4 8.2-3.1 0-5.1-3.1-5.6-6.1-1-7.2 2-15.9 5.1-23 3.1-7.1 6.1-14.3 11.8-17.4-5.1 4.1-8.2 17.4.5 16.9 11.8-.5 12.3-22 3.6-25.1-2-1-5.6-.5-7.7 0-10.2 2-17.9 10.2-23.6 17.9-6.1 8.7-9.2 23-10.2 29.7-.5 1-5.6 11.8-11.3 11.3-4.6 0 8.2-38.9 11.8-51.2-6.7 1-13.3 2.6-20 4.1-3.6 13.3-15.9 53.2-21.5 53.8-5.6.5 8.7-38.4 12.8-51.2l-20 4.1c-4.1 14.8-7.7 30.7-14.3 42.5-2.6 4.1-7.7 11.8-10.8 11.3-4.1 0 7.7-38.9 11.8-51.2l-17.9 3.6-2.6 5.1c-.5-5.1-5.1-6.1-10.8-4.6-9.2 2.6-16.9 10.8-23 19.5-6.1 9.2-10.8 20-10.8 29.7-.5 9.7 2.6 17.4 8.7 18.9 11.3 3.1 21-10.2 24.1-16.9.5 5.6 2.6 9.2 5.1 10.2 12.3 5.6 24.1-12.3 28.2-16.9.5 7.2 4.6 11.3 10.2 10.8 9.7-1 16.9-10.8 20-17.4.5 4.1 1.5 7.2 3.1 9.2 8.7 8.2 26.1-7.7 29.7-15.4 2 4.6 5.1 8.2 9.2 9.2 11.8 4.1 24.1-5.1 24.1-5.1 5.1-3.1 12.8-12.8 13.8-13.8 2.6 8.2 8.7 12.3 16.9 11.8 22-1 33.8-23.6 38.4-39.4.5-1.5 1.5-2.6 2-3.1 5.1-3.6 3.1 9.2 2 11.3-7.2 20-13.3 34.3-67.6 43.5-30.7 5.1-79.4 13.8-94.7 16.9-30.2 5.1-52.2 10.2-65 17.9-19.5 11.3-21.5 26.1-15.4 43.5.5-17.4 22.5-26.1 64.5-33.3 37.4-6.1 109.6-18.9 111.6-19.5 58.4-9.7 69.6-48.1 74.8-73.7 1.6-12.9-3-21.1-9.2-18.5zm-31.2 1.5c2-2 5.1-4.6 8.2-2 1 1 .5 4.1 0 5.6-2 4.6-7.7 11.8-16.4 17.9-.5-5.6 4.1-16.9 8.2-21.5zm-169 53.3c-2.6 7.2-9.2 20.5-12.3 19.5-3.1-1-2-6.7-1-11.3 2-9.7 8.2-27.1 15.4-31.7 6.1-4.7 0 15.8-2.1 23.5zm184.9-192c-.5 17.4-22.5 26.1-64.5 33.3-12.3 2-114.7 20-115.2 20-46.1 8.2-46.1 8.7-50.2 21-6.7 14.3-19.5 41-26.6 58.4.5-32.8 9.7-68.1-27.1-59.4-20 4.6-42 28.2-39.9 50.7 0 2.6 1.5 8.2 4.6 10.8 8.7 6.7 20.5-4.1 21.5-13.8-2.6 1-5.6.5-6.7-1.5-5.1-6.7 4.6-26.6 11.3-32.8 2-2 6.1-4.6 8.2-4.6 3.1 1.5 2.6 5.6 2.6 10.8 1 22.5-16.4 75.8-29.2 84.5-10.8 7.7-21 3.1-18.9-11.3-18.9 25.1-3.1 41 15.4 36.4 27.6-6.7 34.8-72.2 39.9-91.6-1 23.6-3.1 39.9-4.1 61.4l12.8-1.5c13.8-27.1 24.6-49.7 36.9-73.2-3.1 11.8-12.3 33.3-17.9 53.8 4.1-2 8.2-4.1 12.8-5.1 2.6-.5 5.6-1 8.7-1h3.6c.5-15.4 9.2-41.5 16.9-62 7.2-2 15.4-4.1 25.6-5.6 8.7-1.5 94.7-16.4 94.7-16.4 1.5 0 2.6-.5 3.6-.5 30.2-5.1 52.2-10.2 65-17.9 20.3-10.7 22.3-25.5 16.2-42.9z"/></svg>
